# File created by Blade
# Date/Time:  Tue Jan 27 18:05:41 2015
# Frame Rate: 120.000 fps
#------------------------------------------------------
:FULLY-SPECIFIED
:DEGREES
3215
root -1.450714 31.901311 -6.022277 6.704574 14.151834 3.610569
Spine -7.177410 -12.529184 -5.731762
Head -2.329450 -19.745984 4.205789
LeftShoulder -10.688683 16.815892 8.484619
LeftArm 19.722673 36.615810 -75.092053
LeftForeArm -4.101332 -0.000000 12.789353
LeftHand -11.308809 -0.000000 -5.396864
LeftHandThumb1 -26.253704 0.000000 33.147579
RightShoulder -9.530150 18.755868 -40.177354
RightArm 24.822810 69.086262 50.663994
RightForeArm 26.461376 -0.000000 92.117373
RightHand -4.815456 0.000000 9.790661
RightHandThumb1 -24.326973 -0.000000 -32.862282
LeftUpLeg -2.083796 -5.146388 -0.373100
LeftLeg 0.960978 -0.000000 -0.000000
LeftFoot -16.303576 14.048810 -24.737230
LeftToeBase 8.584295 -0.000000 -0.000000
RightUpLeg 2.380553 -7.674552 -3.105685
RightLeg -2.744516 -0.000000 0.000000
RightFoot -16.787313 -17.101798 11.110141
RightToeBase 5.007182 -0.000000 -0.000000
3216
root -1.454013 31.901239 -6.028244 6.693185 14.175567 3.607916
Spine -7.165954 -12.547624 -5.745956
Head -2.310436 -19.491869 4.353648
LeftShoulder -10.687381 16.864438 8.491851
LeftArm 19.644317 36.447047 -75.258268
LeftForeArm -4.146671 -0.000000 12.881832
LeftHand -11.300379 -0.000000 -5.229669
LeftHandThumb1 -26.253704 0.000000 33.147579
RightShoulder -9.537170 18.709509 -40.157697
RightArm 24.233564 68.565835 49.726018
RightForeArm 26.039356 -0.000000 92.026039
RightHand -4.975060 -0.000000 10.080603
RightHandThumb1 -24.326973 -0.000000 -32.862282
LeftUpLeg -2.080839 -5.136571 -0.363488
LeftLeg 0.947412 -0.000000 -0.000000
LeftFoot -16.274024 14.018471 -24.721890
LeftToeBase 8.586466 -0.000000 -0.000000
RightUpLeg 2.386403 -7.654403 -3.097333
RightLeg -2.751965 -0.000000 0.000000
RightFoot -16.782871 -17.145051 11.099022
RightToeBase 4.997012 -0.000000 -0.000000
3217
root -1.457656 31.901023 -6.034355 6.678182 14.194733 3.599986
Spine -7.142396 -12.575462 -5.758222
Head -2.288113 -19.240261 4.491394
LeftShoulder -10.704754 16.891496 8.503334
LeftArm 19.504096 36.245060 -75.473622
LeftForeArm -4.156689 -0.000000 13.006263
LeftHand -11.266231 -0.000000 -5.092686
LeftHandThumb1 -26.253704 0.000000 33.147579
RightShoulder -9.535466 18.719300 -40.142684
RightArm 23.512919 68.014728 48.692392
RightForeArm 25.999516 -0.000000 91.918838
RightHand -4.856607 -0.000000 9.965358
RightHandThumb1 -24.326973 -0.000000 -32.862282
LeftUpLeg -2.071383 -5.138078 -0.349978
LeftLeg 0.926955 -0.000000 -0.000000
LeftFoot -16.251131 14.014073 -24.699488
LeftToeBase 8.580916 -0.000000 -0.000000
RightUpLeg 2.385741 -7.639929 -3.084333
RightLeg -2.742893 -0.000000 0.000000
RightFoot -16.783124 -17.172366 11.095093
RightToeBase 4.996157 -0.000000 -0.000000
3218
root -1.461003 31.900863 -6.041499 6.668486 14.220791 3.592969
Spine -7.118541 -12.594976 -5.765123
Head -2.263278 -19.003974 4.592084
LeftShoulder -10.727449 16.899051 8.512327
LeftArm 19.331811 36.028717 -75.716521
LeftForeArm -4.152109 -0.000000 13.140101
LeftHand -11.293730 0.000000 -5.275181
LeftHandThumb1 -26.253704 0.000000 33.147579
RightShoulder -9.552036 18.634421 -40.115674
RightArm 22.962309 67.453236 47.763054
RightForeArm 25.834422 -0.000000 91.784893
RightHand -4.816172 0.000000 10.026187
RightHandThumb1 -24.326973 -0.000000 -32.862282
LeftUpLeg -2.076010 -5.127549 -0.337021
LeftLeg 0.916741 -0.000000 -0.000000
LeftFoot -16.228011 13.986813 -24.674859
LeftToeBase 8.588063 -0.000000 -0.000000
RightUpLeg 2.381419 -7.638829 -3.071366
RightLeg -2.739569 -0.000000 0.000000
RightFoot -16.784320 -17.195664 11.104150
RightToeBase 4.979261 -0.000000 -0.000000
3219
root -1.463071 31.900817 -6.048737 6.658908 14.248447 3.589003
Spine -7.103441 -12.614800 -5.768261
Head -2.221525 -18.805829 4.672729
LeftShoulder -10.750719 16.972324 8.500558
LeftArm 19.257617 35.836971 -75.882195
LeftForeArm -4.255047 -0.000000 13.260186
LeftHand -11.246807 0.000000 -5.081068
LeftHandThumb1 -26.253704 0.000000 33.147579
RightShoulder -9.577845 18.508081 -40.121520
RightArm 22.531142 66.928658 47.029193
RightForeArm 25.815481 -0.000000 91.681007
RightHand -4.846439 -0.000000 9.821742
RightHandThumb1 -24.326973 -0.000000 -32.862282
LeftUpLeg -2.076904 -5.122514 -0.331039
LeftLeg 0.903146 -0.000000 -0.000000
LeftFoot -16.212235 13.952833 -24.695810
LeftToeBase 8.609608 -0.000000 -0.000000
RightUpLeg 2.375040 -7.658925 -3.064480
RightLeg -2.726986 -0.000000 0.000000
RightFoot -16.783762 -17.203520 11.107038
RightToeBase 4.987718 -0.000000 -0.000000
3220
root -1.466235 31.901260 -6.055991 6.645864 14.265924 3.583001
Spine -7.082745 -12.639627 -5.779929
Head -2.178630 -18.611544 4.760900
LeftShoulder -10.771401 17.001365 8.507758
LeftArm 19.130561 35.635812 -76.102390
LeftForeArm -4.229922 -0.000000 13.334526
LeftHand -11.204185 -0.000000 -4.901280
LeftHandThumb1 -26.253704 0.000000 33.147579
RightShoulder -9.565654 18.479115 -40.081683
RightArm 22.013548 66.412222 46.177271
RightForeArm 25.763014 0.000000 91.588676
RightHand -4.816018 -0.000000 10.193229
RightHandThumb1 -24.326973 -0.000000 -32.862282
LeftUpLeg -2.072936 -5.104091 -0.321087
LeftLeg 0.886620 -0.000000 -0.000000
LeftFoot -16.171193 13.935780 -24.650151
LeftToeBase 8.606511 -0.000000 -0.000000
RightUpLeg 2.368637 -7.647257 -3.053756
RightLeg -2.714044 -0.000000 0.000000
RightFoot -16.787076 -17.228142 11.101395
RightToeBase 5.011449 -0.000000 -0.000000
